<svg width="25" height="18" viewBox="0 0 25 18" fill="none" xmlns="http://www.w3.org/2000/svg">
<path fill-rule="evenodd" clip-rule="evenodd" d="M8.43231 9C10.7573 9 12.6485 6.98143 12.6485 4.5C12.6485 2.01857 10.7573 0 8.43231 0C6.10737 0 4.2161 2.01857 4.2161 4.5C4.2161 6.98143 6.10737 9 8.43231 9ZM0 15.75C0 12.7543 5.61359 11.25 8.43243 11.25C11.2513 11.25 16.8649 12.7543 16.8649 15.75V18H0V15.75ZM8.43247 13.8214C6.27618 13.8214 3.83077 14.6829 2.81888 15.4286H14.0461C13.0342 14.6829 10.5888 13.8214 8.43247 13.8214ZM10.2394 4.50001C10.2394 3.43287 9.43231 2.57144 8.43246 2.57144C7.43262 2.57144 6.62551 3.43287 6.62551 4.50001C6.62551 5.56716 7.43262 6.42858 8.43246 6.42858C9.43231 6.42858 10.2394 5.56716 10.2394 4.50001ZM16.9131 11.3271C18.3105 12.4071 19.2742 13.8471 19.2742 15.75V18H24.0927V15.75C24.0927 13.1529 19.8765 11.6743 16.9131 11.3271ZM19.8764 4.5C19.8764 6.98143 17.9852 9 15.6602 9C15.0097 9 14.4074 8.83286 13.8533 8.55C14.6122 7.40571 15.0579 6.00429 15.0579 4.5C15.0579 2.99571 14.6122 1.59429 13.8533 0.45C14.4074 0.167143 15.0097 0 15.6602 0C17.9852 0 19.8764 2.01857 19.8764 4.5Z" fill="#7D8797"/>
</svg>
