<svg width="25" height="18" viewBox="0 0 25 18" fill="none" xmlns="http://www.w3.org/2000/svg">
<path fill-rule="evenodd" clip-rule="evenodd" d="M12.6485 4.5C12.6485 6.98143 10.7573 9 8.43231 9C6.10737 9 4.2161 6.98143 4.2161 4.5C4.2161 2.01857 6.10737 0 8.43231 0C10.7573 0 12.6485 2.01857 12.6485 4.5ZM0 15.75C0 12.7543 5.61359 11.25 8.43243 11.25C11.2513 11.25 16.8649 12.7543 16.8649 15.75V18H0V15.75ZM16.9131 11.3271C18.3105 12.4071 19.2742 13.8471 19.2742 15.75V18H24.0927V15.75C24.0927 13.1529 19.8765 11.6743 16.9131 11.3271ZM19.8764 4.5C19.8764 6.98143 17.9852 9 15.6602 9C15.0097 9 14.4074 8.83286 13.8533 8.55C14.6122 7.40571 15.0579 6.00429 15.0579 4.5C15.0579 2.99571 14.6122 1.59429 13.8533 0.45C14.4074 0.167143 15.0097 0 15.6602 0C17.9852 0 19.8764 2.01857 19.8764 4.5Z" fill="#112340"/>
</svg>
