<svg width="85" height="85" viewBox="0 0 85 85" fill="none" xmlns="http://www.w3.org/2000/svg">
<path d="M26.0796 75.3151C22.5076 79.4762 17.8241 81.8027 13.0005 81.988C15.6582 78.9002 17.2733 74.9737 17.711 70.7959L17.8889 69.0981L16.5202 68.078C7.4681 61.331 3 51.6162 3 41.405C3 22.3842 18.4134 3 42.644 3C55.6951 3 65.4828 7.52512 72.0097 14.2426C78.5656 20.99 82 30.122 82 39.6058C82 49.1531 78.5291 58.3162 71.9521 65.0794C65.4032 71.8136 55.6136 76.3333 42.644 76.3333C38.1265 76.3333 33.4045 75.6458 29.2143 74.3946L27.3481 73.8373L26.0796 75.3151Z" fill="#A300DC" stroke="#D973FD" stroke-width="6"/>
<path d="M44.28 53.44C44.52 53.7867 44.64 54.16 44.64 54.56C44.64 55.04 44.44 55.4533 44.04 55.8C43.6667 56.12 43.2267 56.28 42.72 56.28C41.9733 56.28 41.3733 55.9467 40.92 55.28L35.56 46.96C34.9467 46 34.2933 45.3333 33.6 44.96C32.9067 44.56 32 44.36 30.88 44.36H26.36V54.12C26.36 54.76 26.1733 55.2667 25.8 55.64C25.4533 56.0133 24.96 56.2 24.32 56.2C23.7067 56.2 23.2133 56.0133 22.84 55.64C22.4667 55.2667 22.28 54.76 22.28 54.12V29.8C22.28 29.1867 22.4533 28.7067 22.8 28.36C23.1733 27.9867 23.68 27.8 24.32 27.8H34.28C37.4 27.8 39.7733 28.4933 41.4 29.88C43.0533 31.2667 43.88 33.2933 43.88 35.96C43.88 38.1733 43.2533 39.9733 42 41.36C40.7467 42.72 38.96 43.5867 36.64 43.96C37.3333 44.1467 37.96 44.48 38.52 44.96C39.08 45.44 39.6267 46.1067 40.16 46.96L44.28 53.44ZM33.8 41.04C35.88 41.04 37.4133 40.64 38.4 39.84C39.4133 39.0133 39.92 37.7467 39.92 36.04C39.92 34.3333 39.4267 33.0933 38.44 32.32C37.4533 31.52 35.9067 31.12 33.8 31.12H26.32V41.04H33.8ZM55.8266 56.28C53.1066 56.28 50.8799 55.72 49.1466 54.6C48.6666 54.3067 48.3199 54 48.1066 53.68C47.9199 53.36 47.8266 53 47.8266 52.6C47.8266 52.1733 47.9466 51.8133 48.1866 51.52C48.4266 51.2267 48.7332 51.08 49.1066 51.08C49.4532 51.08 49.9999 51.2933 50.7466 51.72C51.5466 52.1467 52.3199 52.4933 53.0666 52.76C53.8399 53.0267 54.7999 53.16 55.9466 53.16C57.2266 53.16 58.2266 52.9333 58.9466 52.48C59.6666 52.0267 60.0266 51.3867 60.0266 50.56C60.0266 50.0267 59.8799 49.6 59.5866 49.28C59.3199 48.96 58.8399 48.68 58.1466 48.44C57.4532 48.1733 56.4266 47.8933 55.0666 47.6C52.7199 47.0933 51.0266 46.4133 49.9866 45.56C48.9732 44.68 48.4666 43.4933 48.4666 42C48.4666 40.8533 48.7999 39.8267 49.4666 38.92C50.1332 37.9867 51.0532 37.2667 52.2266 36.76C53.3999 36.2533 54.7332 36 56.2266 36C57.2932 36 58.3332 36.1467 59.3466 36.44C60.3599 36.7067 61.2532 37.1067 62.0266 37.64C62.9066 38.2267 63.3466 38.9067 63.3466 39.68C63.3466 40.1067 63.2132 40.4667 62.9466 40.76C62.7066 41.0533 62.4132 41.2 62.0666 41.2C61.8266 41.2 61.5866 41.1467 61.3466 41.04C61.1066 40.9333 60.7866 40.76 60.3866 40.52C59.6666 40.0933 58.9866 39.76 58.3466 39.52C57.7332 39.28 56.9599 39.16 56.0266 39.16C54.9066 39.16 53.9999 39.4 53.3066 39.88C52.6399 40.36 52.3066 41.0133 52.3066 41.84C52.3066 42.5867 52.6132 43.1733 53.2266 43.6C53.8666 44 55.0532 44.3867 56.7866 44.76C58.5732 45.1333 59.9732 45.56 60.9866 46.04C61.9999 46.52 62.7199 47.12 63.1466 47.84C63.5999 48.5333 63.8266 49.4267 63.8266 50.52C63.8266 52.2533 63.0932 53.6533 61.6266 54.72C60.1866 55.76 58.2532 56.28 55.8266 56.28Z" fill="white"/>
</svg>
