<svg width="21" height="21" viewBox="0 0 21 21" fill="none" xmlns="http://www.w3.org/2000/svg">
<path fill-rule="evenodd" clip-rule="evenodd" d="M9.3333 0H11.6666V11.6667H9.3333V0ZM15.645 4.18831L17.3017 2.53165C19.565 4.45665 21 7.30331 21 10.5C21 16.2983 16.2983 21 10.5 21C4.70167 21 0 16.2983 0 10.5C0 7.30331 1.435 4.45665 3.69833 2.53165L5.34333 4.17665C3.51167 5.66998 2.33333 7.94498 2.33333 10.5C2.33333 15.015 5.985 18.6666 10.5 18.6666C15.015 18.6666 18.6667 15.015 18.6667 10.5C18.6667 7.94498 17.4883 5.66998 15.645 4.18831Z" fill="#A300DC"/>
</svg>
