<svg width="18" height="20" viewBox="0 0 18 20" fill="none" xmlns="http://www.w3.org/2000/svg">
<path fill-rule="evenodd" clip-rule="evenodd" d="M17.66 2.88C17.73 2.99 17.79 3.1 17.84 3.22C17.94 3.46 18 3.72 18 4V18C18 18.41 17.87 18.8 17.66 19.12C17.52 19.33 17.33 19.52 17.12 19.66C17.01 19.73 16.9 19.79 16.78 19.84C16.54 19.94 16.28 20 16 20H2C0.89 20 0 19.1 0 18V4C0 3.72 0.06 3.46 0.16 3.22C0.21 3.1 0.27 2.99 0.34 2.88C0.48 2.67 0.67 2.48 0.88 2.34C1.2 2.13 1.58 2 2 2H3V0H5V2H13V0H15V2H16C16.28 2 16.54 2.06 16.78 2.16C16.9 2.21 17.01 2.27 17.12 2.34C17.33 2.48 17.52 2.67 17.66 2.88ZM2 4V18H16V4H2ZM9 11.88C6.97 11.88 3 12.96 3 15.46V17H15V15.47C15 12.96 11.03 11.88 9 11.88ZM9 13.88C7.69 13.88 6 14.44 5.31 15H12.69C12.01 14.44 10.31 13.88 9 13.88ZM9 11C10.65 11 12 9.65 12 8C12 6.35 10.65 5 9 5C7.35 5 6 6.35 6 8C6 9.65 7.35 11 9 11ZM10 8C10 7.45 9.55 7 9 7C8.45 7 8 7.45 8 8C8 8.55 8.45 9 9 9C9.55 9 10 8.55 10 8Z" fill="#7D8797"/>
</svg>
