<svg width="278" height="223" viewBox="0 0 278 223" fill="none" xmlns="http://www.w3.org/2000/svg">
<path d="M138.825 222.795C215.496 222.795 277.65 218.811 277.65 213.898C277.65 208.984 215.496 205 138.825 205C62.1542 205 0 208.984 0 213.898C0 218.811 62.1542 222.795 138.825 222.795Z" fill="#F5F5F5"/>
<path d="M193.268 148.731C194.055 150.453 194.757 152.182 195.495 153.911C196.232 155.64 196.927 157.401 197.585 159.161C198.244 160.922 198.931 162.691 199.561 164.491C200.192 166.29 200.829 168.09 201.409 169.993L198.845 167.344C200.34 167.904 201.906 168.201 203.485 168.224C205.317 168.278 207.15 168.186 208.97 167.949C210.86 167.729 212.765 167.383 214.698 166.99C216.631 166.597 218.564 166.11 220.426 165.63L222.123 170.158C220.26 171.282 218.332 172.272 216.352 173.121C214.368 173.995 212.338 174.735 210.273 175.337C208.126 175.973 205.931 176.394 203.714 176.595C201.242 176.858 198.747 176.635 196.347 175.935L194.664 175.424L193.748 173.262C192.373 169.953 190.884 166.558 189.452 163.17C188.736 161.472 187.984 159.767 187.268 158.061C186.552 156.355 185.836 154.642 185.12 152.929L193.268 148.731Z" fill="#FFC3BD"/>
<path d="M218.092 167.014L220.905 163.995L225.373 169.301C225.373 169.301 223.755 172.406 219.731 170.598L218.092 167.014Z" fill="#FFC3BD"/>
<path d="M225.151 161.999L227.614 166.408L225.38 169.301L220.913 163.995L225.151 161.999Z" fill="#FFC3BD"/>
<path d="M180.623 141.665C186.351 139.236 190.79 142.86 198.029 152.889L189.552 162.455C189.552 162.455 169.454 146.365 180.623 141.665Z" fill="#263238"/>
<path opacity="0.2" d="M191.378 152.04C188.671 150.115 186.315 150.657 184.325 152.449C185.077 155.507 187.003 159.012 188.857 161.881C189.294 162.258 189.573 162.463 189.573 162.463L194.299 157.126C194.175 156.097 193.85 155.109 193.346 154.231C192.842 153.354 192.17 152.606 191.378 152.04Z" fill="black"/>
<path d="M224.249 208.342L231.108 207.469L230.536 192.032L223.683 192.897L224.249 208.342Z" fill="#FFC3BD"/>
<path d="M231.166 204.223L223.44 204.341C223.315 204.348 223.196 204.404 223.105 204.499C223.014 204.594 222.958 204.722 222.946 204.859L222.073 211.533C222.047 211.69 222.052 211.852 222.088 212.007C222.125 212.162 222.191 212.307 222.283 212.431C222.374 212.556 222.489 212.657 222.62 212.729C222.75 212.8 222.893 212.84 223.039 212.845C225.438 212.759 226.54 212.562 229.569 212.507C231.438 212.507 237.066 212.625 239.643 212.586C242.221 212.547 242.393 209.442 241.326 209.167C236.536 207.988 233.779 206.298 232.182 204.663C231.91 204.374 231.544 204.216 231.166 204.223V204.223Z" fill="#263238"/>
<path d="M232.805 202.258C232.913 202.213 233.03 202.197 233.144 202.212C233.259 202.227 233.369 202.273 233.464 202.344C233.54 202.385 233.605 202.446 233.653 202.522C233.702 202.597 233.733 202.685 233.743 202.777C233.829 203.563 232.311 204.977 232.104 205.135C232.083 205.151 232.058 205.16 232.032 205.16C232.006 205.16 231.981 205.151 231.96 205.135C231.936 205.121 231.916 205.099 231.904 205.072C231.891 205.045 231.886 205.015 231.889 204.985C231.939 204.136 232.118 202.627 232.727 202.289L232.805 202.258ZM232.182 204.663C232.784 204.089 233.528 203.225 233.478 202.792C233.478 202.745 233.478 202.674 233.357 202.612C233.286 202.555 233.203 202.521 233.116 202.512C233.029 202.504 232.941 202.522 232.863 202.564C232.533 202.761 232.283 203.539 232.182 204.663Z" fill="#407BFF"/>
<path d="M232.734 204.38C232.987 204.234 233.265 204.144 233.55 204.117C233.835 204.09 234.122 204.126 234.395 204.223C234.488 204.288 234.56 204.384 234.6 204.497C234.64 204.61 234.646 204.735 234.617 204.852C234.602 204.962 234.564 205.067 234.506 205.159C234.447 205.25 234.37 205.325 234.28 205.378C233.564 205.811 232.046 205.166 231.982 205.142C231.96 205.131 231.94 205.115 231.924 205.095C231.908 205.074 231.896 205.05 231.889 205.025C231.884 204.999 231.886 204.972 231.893 204.948C231.901 204.923 231.914 204.9 231.932 204.883C232.171 204.666 232.442 204.496 232.734 204.38V204.38ZM234.065 205.166L234.144 205.127C234.2 205.091 234.249 205.042 234.286 204.984C234.323 204.926 234.348 204.859 234.359 204.789C234.359 204.6 234.323 204.529 234.266 204.498C233.922 204.254 232.87 204.569 232.304 204.97C232.863 205.214 233.473 205.282 234.065 205.166V205.166Z" fill="#407BFF"/>
<path opacity="0.2" d="M223.683 192.904L230.536 192.032L230.829 199.994L223.941 200.026L223.683 192.904Z" fill="black"/>
<path d="M190.053 183.944C190.053 183.944 207.853 165.772 219.409 165.497C227.843 165.3 233.872 195.923 233.872 195.923L223.848 196.135C223.848 196.135 222.087 185.304 215.535 182.317C206.07 197.911 167.485 228.73 171.143 195.317C176.871 192.952 190.053 183.944 190.053 183.944Z" fill="#407BFF"/>
<path opacity="0.2" d="M190.053 183.944C190.053 183.944 207.853 165.772 219.409 165.497C227.843 165.3 233.872 195.923 233.872 195.923L223.848 196.135C223.848 196.135 222.087 185.304 215.535 182.317C206.07 197.911 167.485 228.73 171.143 195.317C176.871 192.952 190.053 183.944 190.053 183.944Z" fill="black"/>
<path d="M233.836 197.44L222.051 198.682L222.087 193.966L234.552 192.339L233.836 197.44Z" fill="#263238"/>
<path d="M166.683 196.473C166.683 196.473 159.029 180.061 158.091 153.628C157.876 147.403 162.981 141.531 168.831 141.201C173.743 140.918 178.941 140.848 183.151 140.863C187.361 140.879 190.583 143.945 191.063 148.393C192.122 158.203 192.308 173.097 197.786 190.837L166.683 196.473Z" fill="#263238"/>
<path opacity="0.2" d="M161.678 153.762C165.895 148.535 167.349 150.201 167.979 150.83C173.821 156.638 165.244 174.724 163.525 177.389C162.318 170.634 161.6 163.785 161.377 156.906C161.333 155.847 161.435 154.787 161.678 153.762V153.762Z" fill="black"/>
<path d="M174.53 125.489C174.058 130.307 172.898 137.704 169.912 141.139C172.26 143.567 176.084 145.957 181.518 146.955C184.325 145.682 184.697 142.844 183.337 140.871C178.54 139.952 178.597 138.458 180.408 135.102L174.53 125.489Z" fill="#FFC3BD"/>
<path opacity="0.2" d="M176.929 129.411L180.408 135.094C179.947 135.876 179.588 136.726 179.342 137.617C177.638 136.831 175.762 133.97 176.134 131.864C176.264 131.001 176.533 130.17 176.929 129.411Z" fill="black"/>
<path d="M187.103 116.607C189.917 119.885 195.831 119.901 193.289 116.018C190.747 112.135 184.912 114.053 187.103 116.607Z" fill="#263238"/>
<path d="M175.697 116.254C174.129 122.542 172.926 126.063 174.709 130.402C175.251 131.817 176.136 133.041 177.269 133.94C178.402 134.839 179.739 135.379 181.132 135.5C182.526 135.621 183.923 135.318 185.171 134.626C186.419 133.933 187.468 132.877 188.206 131.573C191.07 126.605 193.175 117.213 188.585 112.442C187.634 111.376 186.442 110.607 185.131 110.214C183.82 109.821 182.437 109.819 181.125 110.207C179.813 110.595 178.618 111.36 177.664 112.423C176.71 113.485 176.031 114.808 175.697 116.254Z" fill="#FFC3BD"/>
<path d="M174.415 122.086C175.131 121.944 178.669 120.765 180.394 118.942C182.334 116.89 182.349 114.902 181.826 113.998C181.303 113.094 177.208 111.357 175.296 111.758C172.275 112.394 173.019 118.266 173.062 119.854C173.085 120.325 173.223 120.78 173.461 121.173C173.699 121.566 174.028 121.881 174.415 122.086Z" fill="#FFC3BD"/>
<path opacity="0.7" d="M174.415 122.086C175.131 121.944 178.669 120.765 180.394 118.942C182.334 116.89 182.349 114.902 181.826 113.998C181.303 113.094 177.208 111.357 175.296 111.758C172.275 112.394 173.019 118.266 173.062 119.854C173.085 120.325 173.223 120.78 173.461 121.173C173.699 121.566 174.028 121.881 174.415 122.086Z" fill="#263238"/>
<path d="M171.416 122.518C171.973 123.869 172.972 124.941 174.215 125.521C175.862 126.252 176.8 124.735 176.442 122.888C176.12 121.261 174.874 118.91 173.177 118.958C171.48 119.005 170.742 120.852 171.416 122.518Z" fill="#FFC3BD"/>
<path d="M176.8 113.636C184.103 115.35 189.294 119.861 192.745 117.15C195.187 115.232 193.583 111.734 190.783 109.203C188.392 107.042 185.055 106.374 184.053 104.605C183.936 105.193 183.981 105.806 184.183 106.366C184.384 106.926 184.733 107.407 185.184 107.749C185.184 107.749 178.59 106.633 176.764 104.747C176.327 105.871 178.017 108.04 178.017 108.04C178.017 108.04 176.155 109.981 170.857 107.789C171.172 109.667 172.647 112.662 176.8 113.636Z" fill="#263238"/>
<path d="M191.306 117.786H191.02V117.378C191.65 117.464 192.29 117.321 192.839 116.97C193.389 116.619 193.818 116.081 194.063 115.436C194.337 114.575 194.357 113.641 194.12 112.766C193.884 111.892 193.403 111.121 192.745 110.563C192.113 110.023 191.423 109.569 190.69 109.211C188.993 108.276 187.067 107.215 186.136 104.126L186.487 104C187.368 106.924 189.144 107.93 190.862 108.842C191.627 109.216 192.349 109.691 193.01 110.257C193.733 110.865 194.262 111.709 194.519 112.669C194.777 113.628 194.75 114.652 194.442 115.593C194.191 116.271 193.754 116.845 193.192 117.238C192.63 117.631 191.971 117.823 191.306 117.786V117.786Z" fill="#263238"/>
<path d="M183.974 122.361C183.817 122.856 183.931 123.367 184.218 123.493C184.504 123.619 184.869 123.32 185.027 122.825C185.184 122.33 185.07 121.819 184.783 121.693C184.497 121.567 184.124 121.85 183.974 122.361Z" fill="#263238"/>
<path d="M189.373 124.153C189.222 124.648 189.33 125.151 189.623 125.277C189.917 125.403 190.275 125.112 190.425 124.609C190.576 124.106 190.475 123.611 190.182 123.477C189.888 123.343 189.53 123.65 189.373 124.153Z" fill="#263238"/>
<path d="M187.389 123.548C187.446 125.308 187.715 127.053 188.191 128.735C187.146 129.207 185.922 128.248 185.922 128.248L187.389 123.548Z" fill="#ED847E"/>
<path d="M183.008 129.443C182.038 128.856 181.317 127.873 181.003 126.708C180.997 126.688 180.996 126.668 180.998 126.648C181 126.629 181.006 126.609 181.016 126.592C181.025 126.575 181.038 126.561 181.053 126.549C181.068 126.538 181.085 126.53 181.103 126.527C181.121 126.522 181.139 126.522 181.157 126.525C181.176 126.529 181.193 126.536 181.208 126.547C181.224 126.558 181.237 126.572 181.247 126.589C181.257 126.606 181.264 126.625 181.268 126.645C181.451 127.278 181.762 127.859 182.177 128.343C182.592 128.828 183.101 129.203 183.666 129.443C183.701 129.459 183.729 129.489 183.744 129.527C183.759 129.565 183.759 129.609 183.745 129.647C183.74 129.666 183.732 129.684 183.721 129.7C183.709 129.715 183.694 129.727 183.678 129.735C183.661 129.744 183.643 129.748 183.625 129.747C183.607 129.747 183.589 129.742 183.573 129.734C183.379 129.651 183.19 129.554 183.008 129.443V129.443Z" fill="#263238"/>
<path d="M182.506 119.107C182.462 119.081 182.425 119.043 182.399 118.997C182.358 118.929 182.344 118.846 182.358 118.767C182.373 118.687 182.416 118.617 182.478 118.572C182.841 118.303 183.259 118.136 183.695 118.088C184.132 118.04 184.572 118.112 184.977 118.297C185.011 118.314 185.042 118.339 185.068 118.369C185.093 118.399 185.114 118.434 185.127 118.473C185.14 118.512 185.146 118.553 185.145 118.594C185.144 118.636 185.135 118.676 185.12 118.714C185.106 118.75 185.085 118.783 185.06 118.81C185.034 118.837 185.003 118.859 184.97 118.873C184.936 118.887 184.901 118.893 184.865 118.891C184.829 118.89 184.794 118.88 184.762 118.863V118.863C184.439 118.726 184.091 118.676 183.746 118.719C183.402 118.761 183.073 118.894 182.786 119.107C182.743 119.134 182.695 119.148 182.646 119.148C182.597 119.148 182.549 119.134 182.506 119.107V119.107Z" fill="#263238"/>
<path d="M191.213 122.683C191.169 122.667 191.129 122.639 191.096 122.602C191.064 122.565 191.04 122.52 191.027 122.471C190.935 122.088 190.764 121.733 190.529 121.434C190.293 121.134 189.998 120.897 189.666 120.742C189.595 120.715 189.537 120.659 189.502 120.586C189.467 120.513 189.46 120.428 189.48 120.349C189.489 120.311 189.505 120.275 189.527 120.244C189.549 120.213 189.577 120.187 189.609 120.169C189.641 120.15 189.675 120.139 189.711 120.137C189.747 120.134 189.783 120.139 189.817 120.152C190.238 120.339 190.614 120.63 190.915 121.004C191.216 121.378 191.433 121.824 191.549 122.306C191.562 122.344 191.567 122.385 191.564 122.425C191.562 122.465 191.552 122.505 191.535 122.541C191.518 122.577 191.495 122.609 191.467 122.634C191.438 122.66 191.406 122.68 191.37 122.691C191.318 122.704 191.264 122.702 191.213 122.683Z" fill="#263238"/>
<path d="M248.042 212.012L252.123 205.496L241.132 194.987L237.051 201.503L248.042 212.012Z" fill="#FFC3BD"/>
<path d="M249.302 202.415L244.512 208.962C244.428 209.073 244.382 209.212 244.382 209.355C244.382 209.499 244.428 209.638 244.512 209.748L248.242 214.842C248.331 214.963 248.443 215.061 248.571 215.128C248.698 215.195 248.838 215.23 248.98 215.23C249.121 215.23 249.261 215.195 249.389 215.128C249.516 215.061 249.629 214.963 249.717 214.842C251.228 212.704 252.238 211.061 254.178 208.404C255.374 206.77 259.133 201.991 260.787 199.758C262.441 197.526 260.55 195.325 259.684 196.08C255.796 199.452 252.338 201.519 250.247 201.833C249.877 201.892 249.54 202.099 249.302 202.415Z" fill="#263238"/>
<path d="M248.987 199.727C249.022 199.606 249.081 199.495 249.16 199.402C249.239 199.309 249.337 199.238 249.445 199.192C249.52 199.15 249.604 199.127 249.689 199.127C249.773 199.127 249.857 199.15 249.932 199.192C250.584 199.609 250.648 201.794 250.648 202.046C250.647 202.075 250.638 202.103 250.623 202.126C250.608 202.15 250.587 202.169 250.562 202.179C250.54 202.195 250.513 202.203 250.487 202.203C250.46 202.203 250.434 202.195 250.412 202.179C249.825 201.629 248.851 200.607 248.98 199.821C248.978 199.79 248.98 199.758 248.987 199.727V199.727ZM250.369 201.716C250.312 200.835 250.133 199.672 249.789 199.452C249.755 199.434 249.719 199.424 249.681 199.424C249.644 199.424 249.607 199.434 249.574 199.452C249.492 199.483 249.418 199.537 249.361 199.609C249.303 199.681 249.263 199.767 249.245 199.861C249.195 200.269 249.595 200.953 250.369 201.716V201.716Z" fill="#407BFF"/>
<path d="M250.505 201.063C250.67 200.395 250.985 199.672 251.378 199.491C251.482 199.447 251.596 199.441 251.703 199.473C251.81 199.506 251.905 199.575 251.973 199.672C252.044 199.752 252.098 199.849 252.13 199.955C252.162 200.061 252.172 200.174 252.159 200.285C252.059 201.15 250.67 202.124 250.605 202.164C250.585 202.177 250.561 202.185 250.537 202.185C250.513 202.185 250.489 202.177 250.469 202.164C250.446 202.155 250.427 202.14 250.412 202.118C250.398 202.097 250.391 202.072 250.39 202.046C250.378 201.713 250.417 201.381 250.505 201.063V201.063ZM251.865 200.348C251.865 200.348 251.865 200.293 251.865 200.261C251.874 200.191 251.868 200.12 251.847 200.053C251.825 199.986 251.79 199.925 251.743 199.876C251.629 199.735 251.543 199.743 251.479 199.774C251.099 199.931 250.698 201.047 250.648 201.778C251.165 201.433 251.586 200.938 251.865 200.348V200.348Z" fill="#407BFF"/>
<path opacity="0.2" d="M237.051 201.503L241.132 194.987L246.803 200.403L242.12 206.353L237.051 201.503Z" fill="black"/>
<path d="M177.859 194.076C177.859 194.076 209.149 159.177 223.232 174.111C232.003 183.417 244.891 196.237 244.891 196.237L237.424 204.215C237.424 204.215 218.507 193.172 213.581 187.072C187.733 218.795 164.635 220.965 166.711 196.504C170.375 195.43 174.099 194.619 177.859 194.076V194.076Z" fill="#407BFF"/>
<path d="M247.118 196.308L238.913 207.626L235.433 205.064L243.817 193.046L247.118 196.308Z" fill="#263238"/>
<path d="M166.79 151.412L167.406 165.717C167.52 168.075 167.656 170.433 167.821 172.791C167.907 173.946 168.022 175.086 168.136 176.178C168.201 176.729 168.265 177.263 168.344 177.75C168.423 178.238 168.509 178.694 168.566 178.969C168.569 179.011 168.569 179.053 168.566 179.094C168.448 178.861 168.281 178.661 168.079 178.513C167.962 178.42 167.831 178.351 167.692 178.308C167.614 178.308 167.571 178.308 167.606 178.308C168.192 178.408 168.791 178.365 169.361 178.183C171.255 177.664 173.099 176.945 174.867 176.037C176.778 175.117 178.683 174.056 180.595 172.956C182.506 171.855 184.418 170.684 186.272 169.545L188.95 173.475C185.593 176.904 181.947 179.976 178.06 182.647C177.065 183.315 176.034 183.96 174.945 184.565C173.809 185.209 172.629 185.755 171.415 186.2C170.725 186.45 170.019 186.644 169.303 186.781C168.423 186.962 167.525 187.009 166.633 186.923C166.056 186.864 165.489 186.727 164.943 186.514C164.285 186.26 163.667 185.897 163.11 185.437C162.529 184.943 162.028 184.345 161.628 183.669C161.445 183.36 161.282 183.037 161.141 182.702L160.869 181.979C160.617 181.23 160.404 180.467 160.232 179.692C160.074 178.992 159.945 178.34 159.831 177.687C159.594 176.391 159.415 175.125 159.258 173.875C158.928 171.376 158.692 168.908 158.492 166.448C158.091 161.527 157.854 156.662 157.776 151.718L166.79 151.412Z" fill="#FFC3BD"/>
<path d="M164.592 142.192C161.22 142.608 156.172 146.122 156 162.455L170.463 161.205C170.463 161.205 177.28 140.596 164.592 142.192Z" fill="#263238"/>
<path d="M198.437 161.268L193.067 161.653C192.75 161.701 192.454 161.853 192.216 162.089C191.979 162.324 191.811 162.632 191.736 162.974L189.222 175.927C189.18 176.068 189.17 176.218 189.194 176.364C189.218 176.51 189.275 176.648 189.36 176.763C189.444 176.879 189.554 176.97 189.679 177.027C189.804 177.084 189.94 177.106 190.074 177.09L195.444 176.705C195.762 176.659 196.06 176.508 196.297 176.272C196.535 176.036 196.702 175.727 196.776 175.385L199.289 162.431C199.332 162.29 199.342 162.14 199.318 161.994C199.294 161.848 199.237 161.71 199.152 161.595C199.067 161.479 198.957 161.389 198.833 161.331C198.708 161.274 198.572 161.253 198.437 161.268Z" fill="#407BFF"/>
<path d="M186.709 169.238L191.156 167.54L190.06 175.188C190.06 175.188 185.105 176.383 184.697 173.459L185.413 170.857C185.504 170.497 185.667 170.165 185.892 169.884C186.116 169.604 186.396 169.383 186.709 169.238V169.238Z" fill="#FFC3BD"/>
<path d="M196.239 168.185L194.313 174.992L190.06 175.188L191.156 167.54L196.239 168.185Z" fill="#FFC3BD"/>
<path d="M71.9307 11.4254C68.4366 2.52001 87.4894 -6.80196 92.8737 7.06308C102.017 11.4254 90.3319 29.975 92.9739 33.119C95.616 36.263 97.6065 32.4509 97.6065 32.4509C97.6065 32.4509 100.277 40.2637 93.468 46.5203C87.3677 52.1402 69.0166 53.665 68.9736 42.5903C68.9163 28.1908 76.5131 23.0975 71.9307 11.4254Z" fill="#263238"/>
<path d="M89.4512 198.383L84.3247 201.661L72.0166 186.216L78.4034 179.889L89.4512 198.383Z" fill="#FF8B7B"/>
<path d="M83.7375 200.246L89.0288 195.79C89.1115 195.708 89.2185 195.663 89.3295 195.663C89.4405 195.663 89.5475 195.708 89.6302 195.79L93.1386 199.594C93.2244 199.7 93.2886 199.825 93.3271 199.961C93.3656 200.097 93.3774 200.24 93.3619 200.381C93.3463 200.522 93.3037 200.658 93.2368 200.78C93.17 200.901 93.0804 201.006 92.974 201.087C91.1123 202.604 90.1457 203.241 87.8187 205.206C86.3867 206.408 83.5227 209.049 81.5609 210.708C79.5991 212.366 78.1098 210.456 78.8043 209.584C81.9404 205.654 82.6206 203.296 83.1003 201.197C83.2088 200.81 83.4334 200.475 83.7375 200.246V200.246Z" fill="#263238"/>
<path d="M82.549 202.573C82.1808 202.949 81.7107 203.184 81.2101 203.241C81.0907 203.235 80.9745 203.197 80.8719 203.13C80.7694 203.063 80.6838 202.969 80.623 202.856C80.5879 202.784 80.5695 202.705 80.5695 202.624C80.5695 202.543 80.5879 202.463 80.623 202.392C80.981 201.606 83.5299 200.985 83.8163 200.914C83.8439 200.909 83.8721 200.914 83.8975 200.926C83.923 200.939 83.9445 200.959 83.9595 200.985C83.9733 201.011 83.9806 201.041 83.9806 201.071C83.9806 201.102 83.9733 201.132 83.9595 201.158C83.5296 201.676 83.0575 202.149 82.549 202.573V202.573ZM81.0311 202.282C80.9562 202.338 80.8948 202.414 80.8521 202.502C80.8361 202.529 80.8275 202.56 80.8275 202.592C80.8275 202.624 80.8361 202.656 80.8521 202.683C80.8893 202.758 80.9439 202.822 81.0105 202.868C81.077 202.913 81.1532 202.939 81.2315 202.942C81.6969 202.942 82.506 202.36 83.4225 201.307C82.5821 201.486 81.7741 201.815 81.0311 202.282V202.282Z" fill="#407BFF"/>
<path d="M83.8951 201.174H83.8378C83.1218 201.386 81.2817 201.276 80.9738 200.655C80.9094 200.513 80.8879 200.27 81.1743 199.979C81.3784 199.77 81.6472 199.655 81.9261 199.657C82.864 199.657 83.8664 200.875 83.9022 200.93C83.9143 200.951 83.9207 200.976 83.9207 201.001C83.9207 201.026 83.9143 201.05 83.9022 201.071C83.9093 201.106 83.9068 201.141 83.8951 201.174V201.174ZM81.432 200.16L81.3676 200.223C81.1814 200.411 81.2244 200.506 81.2387 200.537C81.4106 200.914 82.7208 201.095 83.5371 200.969C83.1098 200.457 82.5415 200.112 81.9189 199.987C81.7435 199.983 81.572 200.044 81.432 200.16V200.16Z" fill="#407BFF"/>
<path d="M70.8138 43.7143C70.4772 45.4042 70.0978 46.929 69.6682 48.5089C69.2386 50.0887 68.7946 51.6529 68.2791 53.162C67.2885 56.263 66.1264 59.2947 64.7994 62.2403L63.7468 64.4411C63.3674 65.1642 63.0308 65.8873 62.6012 66.6026L61.9855 67.6637C61.7707 68.0253 61.606 68.3475 61.3124 68.772C61.1692 68.9763 61.026 69.1807 60.8327 69.4243C60.5895 69.739 60.3158 70.0236 60.0165 70.2732C59.6545 70.5774 59.2368 70.7919 58.7921 70.902C58.5853 70.9531 58.374 70.9794 58.162 70.9806C57.9027 70.9836 57.6445 70.9439 57.3959 70.8627C56.9314 70.7249 56.5088 70.4535 56.1716 70.0767C55.8336 69.7052 55.5872 69.2453 55.4556 68.7405C55.3891 68.5075 55.3436 68.268 55.3195 68.0252C55.2635 67.4584 55.2635 66.8865 55.3195 66.3196C55.3696 65.848 55.4412 65.4079 55.5128 64.9834C55.656 64.1267 55.8422 63.325 56.0355 62.5232C56.4375 60.9455 56.9155 59.3923 57.4675 57.8701L60.3315 58.5618L60.1382 63.2778C60.1382 64.0638 60.0952 64.8027 60.0881 65.5258C60.0881 65.8873 60.0881 66.241 60.0881 66.5554C60.0867 66.7816 60.1156 67.0067 60.174 67.2235C60.174 67.2235 60.174 67.2235 60.174 67.0821C60.0856 66.7848 59.9333 66.5152 59.7301 66.2961C59.4526 65.9859 59.1075 65.7587 58.7277 65.6358C58.522 65.5749 58.3105 65.5406 58.0976 65.5336C57.9291 65.5368 57.7612 65.5579 57.5964 65.5965C57.34 65.6651 57.0972 65.785 56.8804 65.9502C56.73 66.0681 56.7873 66.0052 56.8159 65.9502L56.9806 65.6437L57.9401 63.7573C58.2623 63.097 58.5558 62.4211 58.8709 61.753L59.7516 59.7094C60.8685 56.9348 61.8996 54.0816 62.7588 51.1734C63.2027 49.7193 63.6108 48.2495 64.0189 46.7797C64.427 45.3098 64.7922 43.7929 65.1144 42.4016L70.8138 43.7143Z" fill="#FF8B7B"/>
<path d="M68.365 35.532C66.2886 35.9014 62.995 50.3874 62.995 50.3874L67.7851 54.4353C67.7851 54.4353 72.5894 43.9658 72.7971 39.2577C72.9403 35.8464 69.9331 35.2569 68.365 35.532Z" fill="#FF8B7B"/>
<path d="M60.8542 59.2614L60.0451 52.0616L56.2861 58.1138C56.4461 58.8433 56.796 59.5059 57.2931 60.0209C57.7902 60.5358 58.413 60.881 59.0857 61.0141L60.8542 59.2614Z" fill="#FF8B7B"/>
<path d="M87.1242 210.606L81.3962 210.818L80.3008 188.873L88.2484 188.999L87.1242 210.606Z" fill="#FF8B7B"/>
<path d="M81.0096 208.814L87.4536 208.766C87.5614 208.762 87.6665 208.804 87.7467 208.883C87.8269 208.962 87.8758 209.073 87.8832 209.191L88.2698 214.764C88.2737 215.056 88.1719 215.339 87.9868 215.549C87.8017 215.76 87.5483 215.881 87.2817 215.888C85.0478 215.888 83.9738 215.723 81.1528 215.746C79.4129 215.746 76.8568 215.974 74.4653 215.998C72.0739 216.021 72.0954 213.412 73.1121 213.168C77.6587 212.075 78.4535 210.614 80.0501 209.238C80.3196 208.986 80.6563 208.837 81.0096 208.814V208.814Z" fill="#263238"/>
<path d="M68.0142 35.4849C68.0142 35.4849 65.1502 36.2709 65.1502 73.4722L88.1266 75.7045C89.2794 65.3371 90.2102 58.9627 97.8212 38.1966C94.6986 37.147 91.5081 36.3588 88.277 35.8386C84.829 35.223 81.3448 34.8842 77.852 34.8246C73.2696 34.8325 68.0142 35.4849 68.0142 35.4849Z" fill="#407BFF"/>
<path opacity="0.2" d="M93.2603 42.944L94.4847 47.5264C93.5253 50.3638 92.7305 52.8712 92.0646 55.127C91.5572 51.0196 91.9676 46.8384 93.2603 42.944Z" fill="black"/>
<path d="M60.0451 52.0616L56.2861 58.1138L60.8542 57.823L63.2886 52.2895L60.0451 52.0616Z" fill="#FF8B7B"/>
<path d="M62.4294 65.9817L66.7254 65.9109C66.8669 65.9079 67.0062 65.8721 67.1342 65.8057C67.2621 65.7394 67.3758 65.644 67.4678 65.526C67.5598 65.4079 67.628 65.2698 67.6678 65.1208C67.7077 64.9717 67.7184 64.8151 67.6992 64.6612L66.3602 54.0895C66.3285 53.8242 66.2086 53.5812 66.0236 53.4071C65.8386 53.233 65.6015 53.1401 65.3578 53.1463L61.0618 53.217C60.9203 53.2176 60.7805 53.2516 60.652 53.3167C60.5235 53.3817 60.4092 53.4763 60.3169 53.5941C60.2245 53.7118 60.1563 53.85 60.1168 53.9992C60.0774 54.1484 60.0676 54.3052 60.0881 54.4589L61.427 65.0306C61.4586 65.2966 61.5782 65.5405 61.7631 65.7158C61.9479 65.8912 62.1851 65.9858 62.4294 65.9817Z" fill="#263238"/>
<path d="M89.1362 22.7516C87.9262 26.3987 86.2722 33.1268 88.2412 35.8307C84.8161 38.9741 80.978 41.5313 76.8568 43.4156C74.4582 37.2691 77.8162 34.8167 77.8162 34.8167C81.7041 34.1958 82.0621 31.1147 81.833 28.1672L89.1362 22.7516Z" fill="#FF8B7B"/>
<path d="M73.3985 18.5701C72.7971 29.4877 66.8185 32.616 68.2218 38.2201C70.2051 46.0801 78.2959 39.9258 78.2959 39.9258C78.2959 39.9258 73.8925 41.4978 73.6133 37.6778C73.3842 34.5338 83.5514 35.0211 80.7303 27.6249C78.9189 22.8617 73.3985 18.5701 73.3985 18.5701Z" fill="#263238"/>
<path opacity="0.2" d="M87.0526 25.5105L81.8401 28.1672C81.8973 28.8575 81.8973 29.552 81.8401 30.2422C82.9285 30.3523 85.7495 29.4562 86.8163 27.5227C87.112 26.9046 87.1958 26.1907 87.0526 25.5105Z" fill="black"/>
<path d="M90.0383 12.4865C90.561 18.6802 90.9047 21.2975 88.5204 24.9289C84.9404 30.3916 77.8878 29.747 75.6897 23.8363C73.7064 18.523 73.1837 9.2796 78.3174 5.90766C79.4453 5.15602 80.7296 4.7337 82.0482 4.68088C83.3668 4.62806 84.6757 4.94648 85.8505 5.60588C87.0253 6.26528 88.0269 7.24371 88.7599 8.44807C89.4929 9.65243 89.933 11.0427 90.0383 12.4865Z" fill="#FF8B7B"/>
<path d="M88.7925 6.26924C84.339 2.91302 80.6373 9.35822 88.5419 15.6226C96.4466 21.8871 93.8546 10.0813 88.7925 6.26924Z" fill="#263238"/>
<path d="M86.4225 4.46928C88.2626 6.28494 77.3078 12.9817 71.3507 10.7573C65.3936 8.5329 70.1765 3.5418 72.346 2.89728C70.4844 4.87014 73.7422 7.8648 75.3174 5.99412C76.8926 4.12344 82.728 0.830104 86.4225 4.46928Z" fill="#263238"/>
<path d="M65.1215 73.4722C65.1215 73.4722 52.9997 129.821 54.0665 144.047C55.3052 160.679 71.8734 187.489 71.8734 187.489L79.4845 179.904C79.4845 179.904 71.9307 157.944 66.3387 143.638C68.1287 129.333 83.9523 88.9171 83.9523 75.3036L65.1215 73.4722Z" fill="#407BFF"/>
<path opacity="0.6" d="M65.1215 73.4722C65.1215 73.4722 52.9997 129.821 54.0665 144.047C55.3052 160.679 71.8734 187.489 71.8734 187.489L79.4845 179.904C79.4845 179.904 71.9307 157.944 66.3387 143.638C68.1287 129.333 83.9523 88.9171 83.9523 75.3036L65.1215 73.4722Z" fill="black"/>
<path d="M80.8879 181.036L71.8949 188.393L69.5894 186.468L79.4559 177.924L80.8879 181.036Z" fill="#407BFF"/>
<path opacity="0.2" d="M74.093 98.2548C67.4127 108.41 67.0906 127.085 67.5058 137.555C69.797 127.918 74.6014 113.527 78.432 100.558C78.3389 95.5903 77.2148 93.4995 74.093 98.2548Z" fill="black"/>
<path d="M69.4319 73.5194C69.4319 73.5194 73.8711 122.181 75.3532 138.608C77.1145 158.109 79.6993 189.384 79.6993 189.384L88.2483 188.991C88.2483 188.991 90.1243 162.479 88.7352 144.975C88.9858 121.788 92.1004 90.2612 88.0908 75.6731L69.4319 73.5194Z" fill="#407BFF"/>
<path opacity="0.6" d="M69.4319 73.5194C69.4319 73.5194 73.8711 122.181 75.3532 138.608C77.1145 158.109 79.6993 189.384 79.6993 189.384L88.2483 188.991C88.2483 188.991 90.1243 162.479 88.7352 144.975C88.9858 121.788 92.1004 90.2612 88.0908 75.6731L69.4319 73.5194Z" fill="black"/>
<path d="M88.8999 190.712L79.0907 190.405L78.4033 187.018L89.5013 186.68L88.8999 190.712Z" fill="#407BFF"/>
<path d="M81.2602 15.9056C81.3318 16.4008 81.1456 16.8488 80.8449 16.9038C80.5442 16.9588 80.2506 16.5894 80.179 16.1178C80.1074 15.6462 80.2936 15.1746 80.5943 15.1196C80.895 15.0646 81.1886 15.4026 81.2602 15.9056Z" fill="#263238"/>
<path d="M76.1121 16.778C76.1837 17.2811 75.9976 17.7291 75.6969 17.7763C75.3961 17.8234 75.1026 17.4619 75.031 16.9903C74.9594 16.5187 75.1455 16.0392 75.4463 15.992C75.747 15.9449 76.0405 16.2829 76.1121 16.778Z" fill="#263238"/>
<path d="M75.5751 15.9685L74.4367 15.8113C74.4367 15.8113 75.1312 16.6523 75.5751 15.9685Z" fill="#263238"/>
<path d="M77.8019 17.2732C77.5551 18.4816 77.1601 19.6477 76.6277 20.7395C76.8854 20.8812 77.1682 20.9595 77.4563 20.969C77.7444 20.9785 78.0309 20.919 78.296 20.7945L77.8019 17.2732Z" fill="#FF5652"/>
<path d="M81.2602 22.17C81.0278 22.2605 80.788 22.3263 80.5442 22.3665C80.5091 22.3735 80.4729 22.365 80.4435 22.3429C80.414 22.3209 80.3936 22.287 80.3867 22.2486C80.3836 22.229 80.3842 22.2089 80.3883 22.1895C80.3924 22.1701 80.4001 22.1518 80.4108 22.1357C80.4214 22.1195 80.4349 22.1059 80.4505 22.0956C80.466 22.0853 80.4833 22.0786 80.5012 22.0757C81.0703 21.9947 81.6138 21.7665 82.0868 21.4099C82.5598 21.0532 82.9489 20.5783 83.222 20.0242C83.2388 19.9904 83.2663 19.9646 83.2993 19.9515C83.3323 19.9385 83.3685 19.9392 83.401 19.9535C83.4175 19.9612 83.4325 19.9724 83.445 19.9865C83.4575 20.0005 83.4674 20.0172 83.474 20.0354C83.4807 20.0537 83.484 20.0732 83.4837 20.0929C83.4835 20.1125 83.4797 20.1319 83.4726 20.15C83.0035 21.1145 82.2095 21.8394 81.2602 22.17Z" fill="#263238"/>
<path d="M91.6064 16.7152C91.5679 17.3169 91.4217 17.9044 91.1759 18.4439C90.9302 18.9834 90.5898 19.4644 90.1744 19.8592C89.0717 20.8967 87.9047 19.9849 87.697 18.4837C87.5037 17.1396 87.8545 14.9781 89.2078 14.5537C89.5015 14.4546 89.813 14.4369 90.1145 14.5022C90.416 14.5674 90.6981 14.7136 90.9356 14.9276C91.1731 15.1416 91.3587 15.4169 91.4757 15.7288C91.5928 16.0407 91.6377 16.3796 91.6064 16.7152Z" fill="#FF8B7B"/>
<path d="M83.6015 12.8087C83.5658 12.8165 83.529 12.8164 83.4933 12.8083C83.4576 12.8002 83.4238 12.7843 83.3939 12.7616C83.1203 12.5385 82.8023 12.3901 82.4661 12.3286C82.13 12.2671 81.7853 12.2943 81.4607 12.4079C81.4278 12.4231 81.3925 12.4309 81.3569 12.4308C81.3213 12.4307 81.286 12.4227 81.2533 12.4073C81.2205 12.3919 81.1909 12.3694 81.1663 12.3411C81.1416 12.3129 81.1224 12.2794 81.1098 12.2428C81.0838 12.1698 81.085 12.0885 81.1132 12.0165C81.1413 11.9444 81.1941 11.8874 81.2602 11.8577C81.6675 11.7055 82.1024 11.6638 82.5276 11.7364C82.9528 11.8089 83.3557 11.9935 83.7017 12.2743C83.7598 12.3188 83.7997 12.3864 83.8131 12.4627C83.8264 12.539 83.8122 12.618 83.7733 12.683C83.731 12.7454 83.6702 12.7898 83.6015 12.8087V12.8087Z" fill="#263238"/>
<path d="M73.8782 14.6087C73.8467 14.6243 73.8126 14.6324 73.778 14.6324C73.7434 14.6324 73.7093 14.6243 73.6778 14.6087C73.6454 14.5927 73.6163 14.5696 73.5922 14.541C73.5681 14.5124 73.5495 14.4788 73.5375 14.4421C73.5255 14.4055 73.5203 14.3666 73.5223 14.3277C73.5242 14.2888 73.5333 14.2507 73.5489 14.2157C73.7185 13.7823 73.9808 13.4003 74.3136 13.102C74.6464 12.8037 75.0399 12.5979 75.4606 12.5022C75.5292 12.4967 75.5971 12.5198 75.6508 12.5671C75.7044 12.6143 75.7398 12.6821 75.7498 12.7567C75.7597 12.8314 75.7436 12.9075 75.7046 12.9696C75.6655 13.0318 75.6065 13.0754 75.5393 13.0917C75.2074 13.1738 74.898 13.3414 74.6365 13.5805C74.3751 13.8197 74.1692 14.1236 74.0358 14.4672C74.0196 14.5013 73.9973 14.5314 73.9702 14.5557C73.9432 14.5801 73.9119 14.5981 73.8782 14.6087Z" fill="#263238"/>
<path d="M99.332 45.7422C99.4394 46.8819 99.4967 47.8801 99.5253 48.9412C99.554 50.0023 99.5754 51.0241 99.5683 52.0852C99.5396 54.1812 99.4179 56.2772 99.2031 58.3732C98.9836 60.4948 98.6247 62.5963 98.1291 64.6612C97.8735 65.7277 97.5627 66.7774 97.1983 67.8052C97.0193 68.3239 96.8189 68.8427 96.6112 69.3772C96.6112 69.3772 96.5038 69.6287 96.4322 69.7702C96.3566 69.9331 96.268 70.0883 96.1673 70.2339C95.9904 70.5211 95.7837 70.7849 95.5515 71.0199C95.1748 71.374 94.7526 71.6653 94.2985 71.8845C93.6499 72.1825 92.9647 72.3732 92.2651 72.4504C91.7065 72.5181 91.1443 72.5444 90.5825 72.529C89.5709 72.4991 88.5619 72.4019 87.561 72.2382C85.6855 71.9128 83.8281 71.4719 81.9977 70.9177C80.2005 70.3754 78.4176 69.778 76.6778 69.1414C74.9379 68.5047 73.2052 67.7973 71.4796 67.0035L72.3746 63.9852C74.1145 64.4018 75.883 64.8419 77.6444 65.2114C79.4057 65.5808 81.1599 65.9974 82.907 66.2803C84.654 66.5633 86.401 66.8541 88.0908 66.972C88.8983 67.042 89.7088 67.0577 90.518 67.0192C90.8638 67.0011 91.2082 66.9591 91.5491 66.8934C91.7553 66.858 91.9556 66.7891 92.1434 66.689C92.1434 66.689 92.1434 66.689 92.036 66.7519C91.9701 66.8076 91.9121 66.8739 91.8641 66.9484L91.7782 67.0899C91.7782 67.0899 91.7138 67.2471 91.7782 67.1449C91.9143 66.7362 92.0503 66.3589 92.1648 65.903C92.4083 65.0542 92.6088 64.1817 92.7878 63.2935C93.123 61.4762 93.362 59.6392 93.5038 57.7915C93.6613 55.9209 93.7114 54.0187 93.7114 52.1166C93.7114 51.1656 93.7114 50.2145 93.7114 49.2634C93.7114 48.3124 93.6326 47.3299 93.5825 46.481L99.332 45.7422Z" fill="#FF8B7B"/>
<path d="M97.764 38.1966C100.234 39.9651 99.3965 55.3785 99.3965 55.3785L93.5825 56.6597C93.5825 56.6597 93.5324 48.7997 92.9095 43.6986C92.4871 40.2323 96.0026 36.9311 97.764 38.1966Z" fill="#FF8B7B"/>
<path d="M77.8592 209.545C77.7894 209.443 77.742 209.324 77.7209 209.199C77.6998 209.073 77.7055 208.944 77.7375 208.821C77.7508 208.731 77.7846 208.645 77.8359 208.572C77.8872 208.499 77.9543 208.442 78.031 208.405C78.747 208.067 80.3795 209.285 80.5657 209.419C80.5867 209.435 80.6027 209.458 80.6117 209.485C80.6206 209.512 80.6221 209.541 80.6158 209.568C80.6095 209.598 80.5962 209.625 80.5774 209.647C80.5586 209.669 80.5348 209.685 80.5084 209.694C79.7566 209.89 78.4177 210.142 77.9165 209.607L77.8592 209.545ZM80.1361 209.482C79.4201 209.018 78.4893 208.491 78.1241 208.696C78.0908 208.713 78.0621 208.739 78.0408 208.772C78.0194 208.806 78.0062 208.844 78.0024 208.884C77.9761 208.975 77.9722 209.071 77.9911 209.164C78.01 209.256 78.0509 209.342 78.1098 209.411C78.3819 209.678 79.1265 209.71 80.1361 209.497V209.482Z" fill="#407BFF"/>
<path d="M79.7351 208.986C79.5324 208.763 79.3719 208.499 79.2625 208.207C79.1532 207.916 79.0972 207.604 79.0978 207.289C79.1292 207.172 79.193 207.069 79.2803 206.995C79.3676 206.92 79.4741 206.877 79.5847 206.872C79.6848 206.855 79.7871 206.863 79.8838 206.896C79.9806 206.928 80.0693 206.985 80.1432 207.061C80.7232 207.658 80.6229 209.466 80.6158 209.545C80.6147 209.572 80.6076 209.598 80.5952 209.621C80.5827 209.644 80.5652 209.664 80.5442 209.678C80.5231 209.69 80.4998 209.696 80.4762 209.696C80.4525 209.696 80.4292 209.69 80.4081 209.678C80.1521 209.488 79.9249 209.254 79.7351 208.986V208.986ZM80.0072 207.352C79.9899 207.329 79.9707 207.308 79.9499 207.289C79.9039 207.24 79.8484 207.203 79.7876 207.182C79.7269 207.16 79.6624 207.153 79.599 207.163C79.42 207.163 79.3842 207.273 79.3628 207.344C79.2554 207.776 79.8425 208.79 80.358 209.262C80.4055 208.601 80.284 207.94 80.0072 207.352V207.352Z" fill="#407BFF"/>
<path d="M88.6565 74.2425L88.9071 76.6005C88.9643 76.7813 88.7495 76.9464 88.4846 76.9149L64.8566 74.6198C64.649 74.6198 64.4915 74.4705 64.4986 74.329L64.6347 72.0339C64.6347 71.8767 64.8423 71.7588 65.0643 71.7823L88.3271 74.046C88.3928 74.0447 88.4577 74.0621 88.5154 74.0965C88.5732 74.131 88.6218 74.1813 88.6565 74.2425V74.2425Z" fill="white"/>
<path d="M85.1051 76.8206L85.728 76.8756C85.8569 76.8756 85.9571 76.8285 85.9643 76.742L86.1075 73.7631C86.1075 73.6766 86.0144 73.5902 85.8927 73.5823L85.2626 73.5194C85.1409 73.5194 85.0335 73.5666 85.0263 73.653L84.8831 76.6398C84.8831 76.7263 84.9834 76.8049 85.1051 76.8206Z" fill="#407BFF"/>
<path opacity="0.6" d="M85.1051 76.8206L85.728 76.8756C85.8569 76.8756 85.9571 76.8285 85.9643 76.742L86.1075 73.7631C86.1075 73.6766 86.0144 73.5902 85.8927 73.5823L85.2626 73.5194C85.1409 73.5194 85.0335 73.5666 85.0263 73.653L84.8831 76.6398C84.8831 76.7263 84.9834 76.8049 85.1051 76.8206Z" fill="black"/>
<path d="M66.5535 75.0128L67.1765 75.0757C67.3053 75.0757 67.4056 75.0285 67.4127 74.942L67.5559 71.9552C67.5559 71.8688 67.4629 71.7902 67.3411 71.7745L66.7182 71.7195C66.5893 71.7195 66.4891 71.7666 66.4819 71.8531L66.3387 74.832C66.3316 74.9185 66.4318 75.0049 66.5535 75.0128Z" fill="#407BFF"/>
<path opacity="0.6" d="M66.5535 75.0128L67.1765 75.0757C67.3053 75.0757 67.4056 75.0285 67.4127 74.942L67.5559 71.9552C67.5559 71.8688 67.4629 71.7902 67.3411 71.7745L66.7182 71.7195C66.5893 71.7195 66.4891 71.7666 66.4819 71.8531L66.3387 74.832C66.3316 74.9185 66.4318 75.0049 66.5535 75.0128Z" fill="black"/>
<path d="M75.8329 75.9167L76.4558 75.9796C76.5775 75.9796 76.6849 75.9246 76.6849 75.8381L76.8353 72.8592C76.8353 72.7727 76.7422 72.6941 76.6133 72.6784L75.9904 72.6155C75.8687 72.6155 75.7613 72.6705 75.7613 72.757L75.6109 75.7359C75.6109 75.8224 75.7112 75.8774 75.8329 75.9167Z" fill="#407BFF"/>
<path opacity="0.6" d="M75.8329 75.9167L76.4558 75.9796C76.5775 75.9796 76.6849 75.9246 76.6849 75.8381L76.8353 72.8592C76.8353 72.7727 76.7422 72.6941 76.6133 72.6784L75.9904 72.6155C75.8687 72.6155 75.7613 72.6705 75.7613 72.757L75.6109 75.7359C75.6109 75.8224 75.7112 75.8774 75.8329 75.9167Z" fill="black"/>
<path d="M73.2696 64.1739L69.6896 58.9312L68.2003 65.2192C68.2003 65.2192 70.8639 67.7737 73.1264 66.7912L73.2696 64.1739Z" fill="#FF8B7B"/>
<path d="M65.1072 57.7758L64.112 63.0813L68.945 65.793L69.7111 58.9312L65.1072 57.7758Z" fill="#FF8B7B"/>
<path d="M80.7304 15.096L79.5848 14.9388C79.5848 14.9388 80.2506 15.7798 80.7304 15.096Z" fill="#263238"/>
</svg>
